<svg width="224" height="112" viewBox="0 0 224 112" fill="none" xmlns="http://www.w3.org/2000/svg">
<path d="M68 87H54.5" stroke="#C4DDF8" stroke-width="6.5"/>
<path d="M55 32V111.5" stroke="#C4DDF8" stroke-width="6.5"/>
<path d="M25 51L16.5 61" stroke="#C4DDF8" stroke-width="6"/>
<path d="M20 35.5L5 52.5L26.5 70L40.5 54.5" stroke="#C4DDF8" stroke-width="6"/>
<path d="M9 34.5L37 37.5L44 63" stroke="#C4DDF8" stroke-width="6"/>
<path d="M52.36 75V40.44H58.144V54.984H74.512V40.44H80.272V75H74.512V60.408H58.144V75H52.36ZM98.4486 75.72C95.8566 75.72 93.5926 75.136 91.6566 73.968C89.7206 72.8 88.2166 71.192 87.1446 69.144C86.0886 67.08 85.5606 64.712 85.5606 62.04C85.5606 59.32 86.1046 56.936 87.1926 54.888C88.2806 52.84 89.7926 51.24 91.7286 50.088C93.6646 48.936 95.9046 48.36 98.4486 48.36C101.057 48.36 103.329 48.944 105.265 50.112C107.201 51.28 108.705 52.896 109.777 54.96C110.849 57.008 111.385 59.368 111.385 62.04C111.385 64.728 110.841 67.104 109.753 69.168C108.681 71.216 107.177 72.824 105.241 73.992C103.305 75.144 101.041 75.72 98.4486 75.72ZM98.4486 70.296C100.753 70.296 102.465 69.528 103.585 67.992C104.705 66.456 105.265 64.472 105.265 62.04C105.265 59.528 104.697 57.528 103.561 56.04C102.425 54.536 100.721 53.784 98.4486 53.784C96.8966 53.784 95.6166 54.136 94.6086 54.84C93.6166 55.528 92.8806 56.496 92.4006 57.744C91.9206 58.976 91.6806 60.408 91.6806 62.04C91.6806 64.552 92.2486 66.56 93.3846 68.064C94.5366 69.552 96.2246 70.296 98.4486 70.296ZM147.801 75V59.256C147.801 57.48 147.361 56.096 146.481 55.104C145.601 54.096 144.409 53.592 142.905 53.592C141.977 53.592 141.145 53.808 140.409 54.24C139.673 54.656 139.089 55.28 138.656 56.112C138.225 56.928 138.009 57.904 138.009 59.04L135.441 57.528C135.425 55.736 135.825 54.16 136.641 52.8C137.473 51.424 138.593 50.352 140.001 49.584C141.409 48.816 142.977 48.432 144.705 48.432C147.569 48.432 149.761 49.296 151.281 51.024C152.817 52.736 153.585 54.992 153.585 57.792V75H147.801ZM116.625 75V49.08H121.737V57.12H122.457V75H116.625ZM132.249 75V59.328C132.249 57.52 131.809 56.112 130.929 55.104C130.049 54.096 128.849 53.592 127.329 53.592C125.857 53.592 124.673 54.096 123.777 55.104C122.897 56.112 122.457 57.424 122.457 59.04L119.865 57.312C119.865 55.632 120.281 54.12 121.113 52.776C121.945 51.432 123.065 50.376 124.473 49.608C125.897 48.824 127.489 48.432 129.249 48.432C131.185 48.432 132.801 48.848 134.097 49.68C135.409 50.496 136.385 51.616 137.025 53.04C137.681 54.448 138.009 56.04 138.009 57.816V75H132.249ZM160.324 45.144V39.84H166.108V45.144H160.324ZM160.324 75V49.08H166.108V75H160.324ZM184.554 75.72C181.882 75.72 179.602 75.128 177.714 73.944C175.826 72.744 174.378 71.112 173.37 69.048C172.378 66.984 171.874 64.648 171.858 62.04C171.874 59.384 172.394 57.032 173.418 54.984C174.458 52.92 175.93 51.304 177.834 50.136C179.738 48.952 182.002 48.36 184.626 48.36C187.57 48.36 190.058 49.104 192.09 50.592C194.138 52.064 195.474 54.08 196.098 56.64L190.338 58.2C189.89 56.808 189.146 55.728 188.106 54.96C187.066 54.176 185.882 53.784 184.554 53.784C183.05 53.784 181.81 54.144 180.834 54.864C179.858 55.568 179.138 56.544 178.674 57.792C178.21 59.04 177.978 60.456 177.978 62.04C177.978 64.504 178.53 66.496 179.634 68.016C180.738 69.536 182.378 70.296 184.554 70.296C186.09 70.296 187.298 69.944 188.178 69.24C189.074 68.536 189.746 67.52 190.194 66.192L196.098 67.512C195.298 70.152 193.898 72.184 191.898 73.608C189.898 75.016 187.45 75.72 184.554 75.72ZM210.915 75.72C207.715 75.72 205.115 75 203.115 73.56C201.115 72.12 199.899 70.096 199.467 67.488L205.371 66.576C205.675 67.856 206.347 68.864 207.387 69.6C208.427 70.336 209.739 70.704 211.323 70.704C212.715 70.704 213.787 70.432 214.539 69.888C215.307 69.328 215.691 68.568 215.691 67.608C215.691 67.016 215.547 66.544 215.259 66.192C214.987 65.824 214.379 65.472 213.435 65.136C212.491 64.8 211.043 64.376 209.091 63.864C206.915 63.288 205.187 62.672 203.907 62.016C202.627 61.344 201.707 60.552 201.147 59.64C200.587 58.728 200.307 57.624 200.307 56.328C200.307 54.712 200.731 53.304 201.579 52.104C202.427 50.904 203.611 49.984 205.131 49.344C206.651 48.688 208.443 48.36 210.507 48.36C212.523 48.36 214.307 48.672 215.859 49.296C217.427 49.92 218.691 50.808 219.651 51.96C220.611 53.112 221.203 54.464 221.427 56.016L215.523 57.072C215.379 55.968 214.875 55.096 214.011 54.456C213.163 53.816 212.027 53.456 210.603 53.376C209.243 53.296 208.147 53.504 207.315 54C206.483 54.48 206.067 55.16 206.067 56.04C206.067 56.536 206.235 56.96 206.571 57.312C206.907 57.664 207.579 58.016 208.587 58.368C209.611 58.72 211.131 59.152 213.147 59.664C215.211 60.192 216.859 60.8 218.091 61.488C219.339 62.16 220.235 62.968 220.779 63.912C221.339 64.856 221.619 66 221.619 67.344C221.619 69.952 220.667 72 218.763 73.488C216.875 74.976 214.259 75.72 210.915 75.72Z" fill="#C4DDF8"/>
<circle cx="55.5" cy="16.5" r="13.5" stroke="#C4DDF8" stroke-width="6"/>
<path d="M68 98H55" stroke="#C4DDF8" stroke-width="6.5"/>
<path d="M37 38L47 25" stroke="#C4DDF8" stroke-width="6"/>
</svg>
